<?xml version="1.0" encoding="iso-8859-1"?>
<!-- Generator: Adobe Illustrator 19.0.0, SVG Export Plug-In . SVG Version: 6.00 Build 0)  -->
<svg version="1.1" id="Layer_1" xmlns="http://www.w3.org/2000/svg" xmlns:xlink="http://www.w3.org/1999/xlink" x="0px" y="0px"
	 viewBox="0 0 495 495" style="enable-background:new 0 0 495 495;" xml:space="preserve">
<g>
	<rect x="324.212" style="fill:#DDB200;" width="52.641" height="76.371"/>
	<rect x="376.854" style="fill:#CCA400;" width="52.641" height="76.371"/>
	<path style="fill:#EEBF00;" d="M435.399,85.563l-5.904-9.191H395.45l4.761,13.227c33.623,93.417,9.458,199.201-61.565,269.497
		c-24.36,24.11-52.823,42.854-84.599,55.71c-31.013,12.548-63.696,18.91-97.14,18.91c-27.113-0.001-53.829-4.24-79.422-12.597
		c-17.69-5.787-34.608-13.577-50.296-23.155l-9.577-5.848v-11.222c-0.001,0-0.001,30.366-0.001,30.366l5.857,5.858
		C73.692,467.341,140.467,495,211.494,495c71.022,0,137.805-27.662,188.024-77.882c43.166-43.165,70.337-100.324,76.509-160.948
		C482.111,196.414,467.682,135.825,435.399,85.563z"/>
	<path style="fill:#FFCD00;" d="M27.189,397.963c15.688,9.579,32.605,17.368,50.296,23.155
		c25.593,8.357,52.309,12.595,79.405,12.597c33.46,0,66.144-6.362,97.156-18.91c31.775-12.856,60.238-31.6,84.599-55.71
		c71.023-70.296,95.188-176.08,61.565-269.497l-4.761-13.227h-71.237v20c0,135.418-110.17,245.588-245.588,245.588
		c-12.72,0-25.487-0.979-37.948-2.911l-23.064-3.576v56.643L27.189,397.963z"/>
</g>
<g>
</g>
<g>
</g>
<g>
</g>
<g>
</g>
<g>
</g>
<g>
</g>
<g>
</g>
<g>
</g>
<g>
</g>
<g>
</g>
<g>
</g>
<g>
</g>
<g>
</g>
<g>
</g>
<g>
</g>
</svg>
