<?xml version="1.0" encoding="iso-8859-1"?>
<!-- Generator: Adobe Illustrator 19.0.0, SVG Export Plug-In . SVG Version: 6.00 Build 0)  -->
<svg version="1.1" id="Layer_1" xmlns="http://www.w3.org/2000/svg" xmlns:xlink="http://www.w3.org/1999/xlink" x="0px" y="0px"
	 viewBox="0 0 512.004 512.004" style="enable-background:new 0 0 512.004 512.004;" xml:space="preserve">
<path style="fill:#ADA323;" d="M340.02,73.773c0,0-23.569-18.519-46.815,0c0,0,14.561-36.849,46.815-61.904
	c0,0-40.936-0.729-60.232,35.666c0,0,0.966-34.732-22.734-47.535c-23.7,12.8-22.734,47.535-22.734,47.535
	c-19.296-36.392-60.235-35.663-60.235-35.663C206.342,36.924,220.9,73.773,220.9,73.773c-23.246-18.519-46.815,0-46.815,0
	c33.354,10.8,41.485,29.719,41.485,29.719c-32.154-10.037-41.485,19.842-41.485,19.842c39.144,6.333,82.967,47.809,82.967,47.809
	s43.825-41.476,82.967-47.809c0,0-9.331-29.879-41.485-19.842C298.535,103.495,306.666,84.573,340.02,73.773z"/>
<path style="fill:#DB8F21;" d="M147.294,196.749l19.916,19.919c3.524,3.527,3.77,9.162,0.563,12.98l-20.537,24.446
	c-3.798,4.521-10.737,4.581-14.609,0.123l-18.979-21.828c-0.448-0.515-0.824-1.068-1.144-1.644
	c-1.86,3.455-3.629,6.978-5.289,10.575l15.376,15.376c3.527,3.527,3.77,9.162,0.563,12.98l-20.537,24.446
	c-2.957,3.519-7.812,4.321-11.647,2.409c-0.971,6.754-1.619,13.628-1.917,20.604c2.334,0.085,4.649,1.006,6.442,2.8l19.919,19.916
	c3.524,3.527,3.77,9.162,0.563,12.98L95.44,377.277c-0.042,0.05-0.089,0.091-0.131,0.14c7.023,27.254,19.502,51.938,36.034,72.511
	c3.728-2.654,8.971-2.354,12.36,1.033l19.919,19.919c3.056,3.056,3.64,7.701,1.651,11.369c12.928,9.311,27.086,16.686,42.143,21.766
	c-0.291-0.263-0.573-0.542-0.837-0.847l-18.982-21.828c-3.147-3.618-3.147-8.997,0-12.615l19.596-22.537
	c3.655-4.204,10.108-4.427,14.049-0.489l19.916,19.919c3.527,3.527,3.77,9.162,0.563,12.98l-20.534,24.446
	c-1.62,1.929-3.814,3.038-6.096,3.339c3.942,1.103,7.939,2.052,11.987,2.837c0.386-1.235,1.018-2.41,1.914-3.441l19.596-22.537
	c3.655-4.204,10.108-4.427,14.049-0.489l19.916,19.919c1.785,1.784,2.725,4.109,2.806,6.466c11.023-2.172,21.672-5.545,31.835-9.994
	l14.188-16.317c3.655-4.204,10.108-4.43,14.049-0.489l0.49,0.49c1.742-1.239,3.456-2.521,5.153-3.829
	c-0.668-2.912,0.029-6.07,2.107-8.458l19.594-22.537c2.884-3.315,7.503-4.143,11.261-2.419
	c14.783-19.576,26.006-42.586,32.555-67.805c-0.525-0.397-1.022-0.85-1.474-1.371l-18.982-21.825c-3.146-3.618-3.146-8.997,0-12.615
	l19.596-22.537c1.888-2.171,4.522-3.271,7.17-3.294c-0.25-5.263-0.705-10.464-1.34-15.601c-2.391-0.2-4.722-1.285-6.444-3.271
	l-18.982-21.825c-3.146-3.618-3.146-8.997,0-12.615l12.001-13.802c-1.27-3.096-2.619-6.142-4.035-9.144l-17.332,20.631
	c-3.798,4.521-10.737,4.581-14.609,0.126l-18.979-21.828c-3.146-3.618-3.146-8.999,0-12.615l19.594-22.537
	c1.695-1.948,3.991-3.03,6.358-3.251c-4.583-5.551-9.467-10.789-14.621-15.687c-0.194,1.847-0.914,3.654-2.188,5.172l-20.537,24.446
	c-3.798,4.521-10.74,4.581-14.609,0.123L308.2,192.634c-3.146-3.618-3.146-8.997,0-12.615l19.172-22.049
	c-3.21-1.688-6.472-3.273-9.79-4.736l-19.31,22.99c-3.801,4.521-10.74,4.581-14.609,0.126l-18.982-21.828
	c-3.147-3.618-3.147-8.997,0-12.615l1.19-1.369c-3.267-0.212-6.555-0.331-9.87-0.331c-1.139,0-2.272,0.023-3.406,0.048
	c-0.321,1.481-0.991,2.905-2.027,4.139l-20.537,24.446c-3.798,4.521-10.737,4.581-14.609,0.123l-15.625-17.971
	c-3.186,1.265-6.329,2.63-9.423,4.1l18.232,18.232c3.524,3.527,3.77,9.162,0.563,12.98l-20.537,24.446
	c-3.798,4.521-10.737,4.581-14.609,0.123l-18.979-21.826c-2.348-2.699-2.941-6.378-1.786-9.575
	c-5.274,4.577-10.294,9.499-15.033,14.734C141.363,193.448,144.823,194.28,147.294,196.749z M104.804,318.937
	c-3.147-3.618-3.147-8.999,0-12.615l19.596-22.537c3.655-4.204,10.108-4.43,14.049-0.489l19.919,19.916
	c3.524,3.527,3.767,9.162,0.56,12.98l-20.534,24.446c-3.798,4.524-10.74,4.581-14.609,0.126L104.804,318.937z M270.394,385.314
	l19.596-22.537c3.655-4.204,10.108-4.427,14.049-0.489l19.916,19.916c3.527,3.527,3.769,9.162,0.563,12.98l-20.537,24.446
	c-3.798,4.524-10.737,4.584-14.609,0.126l-18.979-21.828C267.247,394.31,267.247,388.932,270.394,385.314z M262.583,381.419
	c-3.798,4.524-10.737,4.581-14.609,0.12l-18.979-21.826c-3.147-3.618-3.147-8.997,0-12.615l19.596-22.537
	c3.655-4.204,10.108-4.427,14.049-0.489l19.916,19.919c3.527,3.527,3.77,9.162,0.563,12.98L262.583,381.419z M311.79,354.586
	c-3.146-3.618-3.146-8.997,0-12.615l19.596-22.537c3.655-4.204,10.108-4.427,14.049-0.489l19.916,19.916
	c3.527,3.527,3.77,9.165,0.563,12.98l-20.537,24.446c-3.798,4.521-10.737,4.581-14.609,0.123L311.79,354.586z M324.519,313.63
	l-20.537,24.446c-3.798,4.521-10.737,4.581-14.609,0.123l-18.979-21.826c-3.146-3.618-3.146-8.997,0-12.615l19.596-22.537
	c3.655-4.204,10.108-4.427,14.049-0.489l19.916,19.916C327.482,304.176,327.725,309.812,324.519,313.63z M283.12,272.851
	l-20.537,24.446c-3.798,4.521-10.737,4.581-14.609,0.126l-18.979-21.828c-3.147-3.618-3.147-8.999,0-12.615l19.596-22.537
	c3.655-4.204,10.108-4.43,14.049-0.489l19.916,19.916C286.083,263.398,286.326,269.033,283.12,272.851z M241.161,303.213
	c3.527,3.527,3.77,9.162,0.563,12.98L221.19,340.64c-3.798,4.524-10.74,4.581-14.609,0.126l-18.982-21.828
	c-3.147-3.618-3.147-8.999,0-12.615l19.596-22.537c3.655-4.204,10.108-4.43,14.049-0.489L241.161,303.213z M199.764,341.426
	c3.527,3.527,3.77,9.162,0.563,12.98l-20.534,24.446c-3.801,4.524-10.74,4.581-14.612,0.126l-18.979-21.828
	c-3.147-3.618-3.147-8.999,0-12.615l19.596-22.537c3.655-4.204,10.108-4.43,14.049-0.489L199.764,341.426z M138.395,419.631
	c-3.798,4.524-10.74,4.584-14.609,0.126l-18.982-21.828c-3.147-3.618-3.147-8.997,0-12.615l19.596-22.537
	c3.655-4.204,10.108-4.427,14.049-0.489l19.919,19.916c3.524,3.527,3.767,9.162,0.56,12.98L138.395,419.631z M200.327,438.53
	l-20.534,24.446c-3.801,4.524-10.74,4.581-14.612,0.126l-18.979-21.828c-3.147-3.618-3.147-8.997,0-12.615l19.596-22.537
	c3.655-4.204,10.108-4.43,14.049-0.489l19.916,19.916C203.291,429.076,203.534,434.712,200.327,438.53z M221.19,419.631
	c-3.798,4.524-10.74,4.584-14.609,0.126l-18.982-21.828c-3.147-3.618-3.147-8.997,0-12.615l19.596-22.537
	c3.655-4.204,10.108-4.427,14.049-0.489l19.916,19.916c3.527,3.527,3.77,9.162,0.563,12.98L221.19,419.631z M262.583,457.846
	c-3.798,4.521-10.737,4.581-14.609,0.123l-18.979-21.825c-3.147-3.618-3.147-8.997,0-12.615l19.596-22.537
	c3.655-4.204,10.108-4.427,14.049-0.489l19.916,19.916c3.527,3.527,3.77,9.162,0.563,12.98L262.583,457.846z M324.519,476.743
	l-20.537,24.446c-3.798,4.521-10.737,4.581-14.609,0.126l-18.979-21.828c-3.146-3.618-3.146-8.997,0-12.615l19.596-22.537
	c3.655-4.204,10.108-4.43,14.049-0.489l19.916,19.916C327.482,467.289,327.725,472.924,324.519,476.743z M365.915,438.53
	l-20.537,24.446c-3.798,4.524-10.737,4.581-14.609,0.126l-18.979-21.828c-3.146-3.618-3.146-8.997,0-12.615l19.596-22.537
	c3.655-4.204,10.108-4.43,14.049-0.489l19.916,19.916C368.878,429.076,369.121,434.712,365.915,438.53z M406.748,382.205
	c3.527,3.527,3.77,9.162,0.563,12.98l-20.537,24.446c-3.798,4.524-10.737,4.584-14.609,0.126l-18.979-21.828
	c-3.146-3.618-3.146-8.997,0-12.615l19.594-22.537c3.658-4.204,10.111-4.427,14.052-0.489L406.748,382.205z M372.779,281.222
	c3.658-4.204,10.111-4.427,14.052-0.489l19.916,19.916c3.527,3.527,3.77,9.162,0.563,12.98l-20.537,24.446
	c-3.798,4.521-10.737,4.581-14.609,0.123l-18.979-21.826c-3.146-3.618-3.146-8.997,0-12.615L372.779,281.222z M331.386,243.01
	c3.655-4.204,10.108-4.427,14.049-0.489l19.916,19.919c3.527,3.524,3.77,9.159,0.563,12.978l-20.537,24.446
	c-3.798,4.521-10.737,4.581-14.609,0.126l-18.979-21.828c-3.146-3.618-3.146-8.997,0-12.615L331.386,243.01z M304.039,201.742
	l19.916,19.916c3.527,3.527,3.769,9.162,0.563,12.98l-20.537,24.446c-3.798,4.521-10.737,4.581-14.609,0.126l-18.979-21.828
	c-3.146-3.618-3.146-8.999,0-12.615l19.596-22.537C293.645,198.027,300.098,197.801,304.039,201.742z M228.995,186.555
	l19.596-22.537c3.655-4.204,10.108-4.43,14.049-0.489l19.916,19.916c3.527,3.527,3.77,9.162,0.563,12.98l-20.537,24.446
	c-3.798,4.521-10.737,4.581-14.609,0.126l-18.979-21.828C225.848,195.552,225.848,190.171,228.995,186.555z M187.599,224.768
	l19.596-22.537c3.655-4.204,10.108-4.43,14.049-0.489l19.916,19.916c3.527,3.527,3.77,9.162,0.563,12.98l-20.534,24.446
	c-3.798,4.521-10.74,4.581-14.609,0.126l-18.982-21.828C184.452,233.764,184.452,228.383,187.599,224.768z M179.848,245.084
	L199.764,265c3.527,3.527,3.77,9.162,0.563,12.98l-20.534,24.446c-3.801,4.524-10.74,4.581-14.612,0.126l-18.979-21.828
	c-3.147-3.618-3.147-8.999,0-12.615l19.596-22.537C169.454,241.369,175.907,241.143,179.848,245.084z"/>
<g>
	<path style="fill:#F7B202;" d="M247.974,220.998c3.872,4.455,10.811,4.395,14.609-0.126l20.537-24.446
		c3.207-3.818,2.964-9.454-0.563-12.98L262.64,163.53c-3.941-3.941-10.394-3.715-14.049,0.489l-19.596,22.537
		c-3.147,3.615-3.147,8.997,0,12.615L247.974,220.998z"/>
	<path style="fill:#F7B202;" d="M206.58,259.211c3.87,4.455,10.811,4.395,14.609-0.126l20.534-24.446
		c3.207-3.818,2.964-9.454-0.563-12.98l-19.916-19.916c-3.941-3.941-10.394-3.715-14.049,0.489l-19.596,22.537
		c-3.147,3.615-3.147,8.997,0,12.615L206.58,259.211z"/>
	<path style="fill:#F7B202;" d="M270.394,237.382l18.979,21.828c3.872,4.455,10.811,4.395,14.609-0.126l20.537-24.446
		c3.206-3.818,2.964-9.454-0.563-12.98l-19.916-19.916c-3.941-3.941-10.394-3.715-14.049,0.489l-19.596,22.537
		C267.247,228.383,267.247,233.764,270.394,237.382z"/>
	<path style="fill:#F7B202;" d="M262.64,239.955c-3.941-3.941-10.394-3.715-14.049,0.489l-19.596,22.537
		c-3.147,3.615-3.147,8.997,0,12.615l18.979,21.828c3.872,4.455,10.811,4.395,14.609-0.126l20.537-24.446
		c3.207-3.818,2.964-9.454-0.563-12.98L262.64,239.955z"/>
	<path style="fill:#F7B202;" d="M165.799,245.573l-19.596,22.537c-3.147,3.615-3.147,8.997,0,12.615l18.979,21.828
		c3.872,4.455,10.811,4.398,14.612-0.126l20.534-24.446c3.207-3.818,2.964-9.454-0.563-12.98l-19.916-19.916
		C175.907,241.143,169.454,241.369,165.799,245.573z"/>
	<path style="fill:#F7B202;" d="M138.395,340.64l20.534-24.446c3.207-3.818,2.964-9.454-0.56-12.98l-19.919-19.916
		c-3.941-3.941-10.394-3.715-14.049,0.489l-19.596,22.537c-3.147,3.615-3.147,8.997,0,12.615l18.982,21.828
		C127.655,345.221,134.597,345.164,138.395,340.64z"/>
	<path style="fill:#F7B202;" d="M207.195,283.786l-19.596,22.537c-3.147,3.615-3.147,8.997,0,12.615l18.982,21.828
		c3.87,4.455,10.811,4.398,14.609-0.126l20.534-24.446c3.207-3.818,2.964-9.454-0.563-12.98l-19.916-19.916
		C217.303,279.356,210.85,279.582,207.195,283.786z"/>
	<path style="fill:#F7B202;" d="M165.799,321.998l-19.596,22.537c-3.147,3.615-3.147,8.997,0,12.615l18.979,21.828
		c3.872,4.455,10.811,4.398,14.612-0.126l20.534-24.446c3.207-3.818,2.964-9.454-0.563-12.98l-19.916-19.916
		C175.907,317.568,169.454,317.794,165.799,321.998z"/>
	<path style="fill:#F7B202;" d="M311.79,278.161l18.979,21.828c3.872,4.455,10.811,4.395,14.609-0.126l20.537-24.446
		c3.206-3.818,2.964-9.454-0.563-12.978l-19.916-19.919c-3.941-3.938-10.394-3.715-14.049,0.489l-19.596,22.537
		C308.643,269.165,308.643,274.543,311.79,278.161z"/>
	<path style="fill:#F7B202;" d="M304.039,280.733c-3.941-3.938-10.394-3.715-14.049,0.489l-19.596,22.537
		c-3.146,3.618-3.146,8.997,0,12.615l18.979,21.826c3.872,4.458,10.811,4.398,14.609-0.123l20.537-24.446
		c3.206-3.818,2.964-9.454-0.563-12.98L304.039,280.733z"/>
	<path style="fill:#F7B202;" d="M353.186,316.374l18.979,21.826c3.872,4.458,10.811,4.398,14.609-0.123l20.537-24.446
		c3.206-3.818,2.964-9.454-0.563-12.98l-19.916-19.916c-3.941-3.938-10.394-3.715-14.052,0.489l-19.594,22.537
		C350.039,307.377,350.039,312.756,353.186,316.374z"/>
	<path style="fill:#F7B202;" d="M345.378,376.289l20.537-24.446c3.206-3.815,2.964-9.454-0.563-12.98l-19.916-19.916
		c-3.941-3.938-10.394-3.715-14.049,0.489l-19.596,22.537c-3.146,3.618-3.146,8.997,0,12.615l18.979,21.825
		C334.641,380.87,341.58,380.81,345.378,376.289z"/>
	<path style="fill:#F7B202;" d="M282.557,343.992l-19.916-19.919c-3.941-3.938-10.394-3.715-14.049,0.489l-19.596,22.537
		c-3.147,3.618-3.147,8.997,0,12.615l18.979,21.826c3.872,4.461,10.811,4.404,14.609-0.12l20.537-24.446
		C286.326,353.154,286.083,347.519,282.557,343.992z"/>
	<path style="fill:#F7B202;" d="M241.161,382.205l-19.916-19.916c-3.941-3.938-10.394-3.715-14.049,0.489L187.6,385.315
		c-3.147,3.618-3.147,8.997,0,12.615l18.982,21.828c3.87,4.458,10.811,4.398,14.609-0.126l20.534-24.446
		C244.93,391.367,244.687,385.731,241.161,382.205z"/>
	<path style="fill:#F7B202;" d="M289.373,419.757c3.872,4.458,10.811,4.398,14.609-0.126l20.537-24.446
		c3.206-3.818,2.964-9.454-0.563-12.98l-19.916-19.916c-3.941-3.938-10.394-3.715-14.049,0.489l-19.596,22.537
		c-3.146,3.618-3.146,8.997,0,12.615L289.373,419.757z"/>
	<path style="fill:#F7B202;" d="M282.557,420.42l-19.916-19.916c-3.941-3.938-10.394-3.715-14.049,0.489l-19.596,22.537
		c-3.147,3.618-3.147,8.997,0,12.615l18.979,21.825c3.872,4.458,10.811,4.398,14.609-0.123L283.12,433.4
		C286.326,429.582,286.083,423.946,282.557,420.42z"/>
	<path style="fill:#F7B202;" d="M372.779,203.66l-19.594,22.537c-3.146,3.615-3.146,8.997,0,12.615l18.979,21.828
		c3.872,4.455,10.811,4.395,14.609-0.126l17.332-20.631c-6.776-14.368-15.188-27.629-24.969-39.474
		C376.77,200.63,374.474,201.712,372.779,203.66z"/>
	<path style="fill:#F7B202;" d="M372.779,362.777l-19.594,22.537c-3.146,3.618-3.146,8.997,0,12.615l18.979,21.828
		c3.872,4.458,10.811,4.398,14.609-0.126l20.537-24.446c3.206-3.818,2.964-9.454-0.563-12.98l-19.916-19.916
		C382.891,358.35,376.437,358.573,372.779,362.777z"/>
	<path style="fill:#F7B202;" d="M158.368,382.205l-19.919-19.916c-3.941-3.938-10.394-3.715-14.049,0.489l-19.596,22.537
		c-3.147,3.618-3.147,8.997,0,12.615l18.982,21.828c3.87,4.458,10.811,4.398,14.609-0.126l20.534-24.446
		C162.135,391.367,161.892,385.731,158.368,382.205z"/>
	<path style="fill:#F7B202;" d="M155.045,189.047l18.979,21.826c3.872,4.458,10.811,4.398,14.609-0.123l20.537-24.446
		c3.207-3.818,2.961-9.454-0.563-12.98l-18.232-18.232c-13.356,6.348-25.817,14.574-37.116,24.381
		C152.103,182.669,152.697,186.348,155.045,189.047z"/>
	<path style="fill:#F7B202;" d="M345.435,405.633c-3.941-3.941-10.394-3.715-14.049,0.489l-19.596,22.537
		c-3.146,3.618-3.146,8.997,0,12.615l18.979,21.828c3.872,4.455,10.811,4.398,14.609-0.126l20.537-24.446
		c3.206-3.818,2.964-9.454-0.563-12.98L345.435,405.633z"/>
	<path style="fill:#F7B202;" d="M304.039,443.846c-3.941-3.941-10.394-3.715-14.049,0.489l-19.596,22.537
		c-3.146,3.618-3.146,8.997,0,12.615l18.979,21.828c3.872,4.455,10.811,4.395,14.609-0.126l20.537-24.446
		c3.206-3.818,2.964-9.454-0.563-12.98L304.039,443.846z"/>
	<path style="fill:#F7B202;" d="M132.628,254.218c3.872,4.458,10.811,4.398,14.609-0.123l20.537-24.446
		c3.207-3.818,2.961-9.454-0.563-12.98l-19.916-19.919c-2.471-2.469-5.931-3.301-9.069-2.543
		c-9.876,10.908-18.529,23.181-25.721,36.539c0.32,0.576,0.697,1.129,1.144,1.644L132.628,254.218z"/>
	<path style="fill:#F7B202;" d="M308.2,192.634l18.982,21.828c3.87,4.458,10.811,4.398,14.609-0.123l20.537-24.446
		c1.274-1.519,1.994-3.326,2.188-5.172c-11.199-10.643-23.677-19.667-37.144-26.751L308.2,180.02
		C305.054,183.638,305.054,189.016,308.2,192.634z"/>
	<path style="fill:#F7B202;" d="M179.848,405.633c-3.941-3.941-10.394-3.715-14.049,0.489l-19.596,22.537
		c-3.147,3.618-3.147,8.997,0,12.615l18.979,21.828c3.872,4.455,10.811,4.398,14.612-0.126l20.534-24.446
		c3.207-3.818,2.964-9.454-0.563-12.98L179.848,405.633z"/>
	<path style="fill:#F7B202;" d="M221.19,503.046l20.534-24.446c3.207-3.818,2.964-9.454-0.563-12.98l-19.916-19.919
		c-3.941-3.938-10.394-3.715-14.049,0.489L187.6,468.727c-3.147,3.618-3.147,8.997,0,12.615l18.982,21.828
		c0.265,0.305,0.546,0.584,0.837,0.847c2.534,0.855,5.093,1.646,7.676,2.369C217.376,506.084,219.57,504.975,221.19,503.046z"/>
	<path style="fill:#F7B202;" d="M163.624,470.881l-19.919-19.919c-3.389-3.387-8.633-3.688-12.36-1.033
		c9.945,12.376,21.354,23.264,33.931,32.322C167.264,478.582,166.68,473.937,163.624,470.881z"/>
	<path style="fill:#F7B202;" d="M282.557,502.675l-19.916-19.919c-3.941-3.938-10.394-3.715-14.049,0.489l-19.596,22.537
		c-0.896,1.031-1.528,2.206-1.914,3.441c9.395,1.823,19.057,2.781,28.921,2.781c10.018,0,19.829-0.983,29.362-2.862
		C285.282,506.784,284.342,504.459,282.557,502.675z"/>
	<path style="fill:#F7B202;" d="M372.779,448.007l-19.594,22.537c-2.079,2.388-2.775,5.546-2.107,8.458
		c12.284-9.467,23.372-20.716,32.962-33.414C380.282,443.864,375.664,444.692,372.779,448.007z"/>
	<path style="fill:#F7B202;" d="M331.386,482.83l-14.188,16.317c10.093-4.419,19.705-9.899,28.727-16.316l-0.49-0.49
		C341.494,478.4,335.041,478.626,331.386,482.83z"/>
	<path style="fill:#F7B202;" d="M230.032,168.84l20.537-24.446c1.036-1.234,1.706-2.658,2.027-4.139
		c-18.493,0.411-36.247,4.164-52.799,10.737l15.625,17.971C219.295,173.421,226.234,173.361,230.032,168.84z"/>
	<path style="fill:#F7B202;" d="M264.681,154.522l18.982,21.828c3.87,4.455,10.808,4.395,14.609-0.126l19.31-22.99
		c-16.153-7.124-33.543-11.519-51.711-12.696l-1.19,1.369C261.534,145.525,261.534,150.904,264.681,154.522z"/>
	<path style="fill:#F7B202;" d="M102.617,294.122l20.537-24.446c3.207-3.818,2.964-9.454-0.563-12.98l-15.376-15.376
		c-7.867,17.043-13.428,35.617-16.245,55.211C94.806,298.443,99.661,297.642,102.617,294.122z"/>
	<path style="fill:#F7B202;" d="M115.978,352.831c3.207-3.818,2.961-9.454-0.563-12.98l-19.919-19.916
		c-1.793-1.794-4.107-2.715-6.442-2.8c-0.127,2.973-0.197,5.962-0.197,8.97c0,17.8,2.253,35.014,6.453,51.313
		c0.042-0.049,0.09-0.09,0.131-0.14L115.978,352.831z"/>
	<path style="fill:#F7B202;" d="M396.14,275.443l18.982,21.825c1.722,1.986,4.053,3.071,6.444,3.271
		c-2.243-18.136-6.831-35.438-13.425-51.512l-12.001,13.802C392.993,266.447,392.993,271.825,396.14,275.443z"/>
	<path style="fill:#F7B202;" d="M415.736,319.435l-19.596,22.537c-3.146,3.618-3.146,8.997,0,12.615l18.982,21.825
		c0.452,0.52,0.948,0.973,1.474,1.371c4.261-16.407,6.551-33.744,6.551-51.677c0-3.343-0.083-6.664-0.24-9.964
		C420.257,316.163,417.624,317.263,415.736,319.435z"/>
</g>
<g style="opacity:0.2;">
	<path d="M138.395,340.64c-17.273-89.168,44.234-160.62,84.744-196.821c-76.571,16.984-134.282,92.129-134.282,182.286
		c0,102.669,74.836,185.898,167.145,185.898c45.249,0,86.267-20.031,116.361-52.513C261.343,492.984,157.442,438.982,138.395,340.64
		z"/>
</g>
<g style="opacity:0.4;">
	<circle style="fill:#FFFFFF;" cx="318.88" cy="211.08" r="29.26"/>
	<circle style="fill:#FFFFFF;" cx="347.77" cy="271.67" r="14.632"/>
</g>
<g>
	<path style="fill:#CCBE3B;" d="M174.084,11.872c0,0,70.672-6.885,82.967,130.036C257.053,141.907,232.793,61.107,174.084,11.872z"
		/>
	<path style="fill:#CCBE3B;" d="M174.084,123.337c0,0,22.3-58.792,82.967,18.57C257.053,141.907,205.4,89.148,174.084,123.337z"/>
	<path style="fill:#CCBE3B;" d="M340.02,11.872c0,0-71.569-6.885-84.015,130.036C256.004,141.907,280.568,61.107,340.02,11.872z"/>
	<path style="fill:#CCBE3B;" d="M340.02,123.337c0,0-22.577-58.792-84.015,18.57C256.004,141.907,308.306,89.148,340.02,123.337z"/>
</g>
<g>
</g>
<g>
</g>
<g>
</g>
<g>
</g>
<g>
</g>
<g>
</g>
<g>
</g>
<g>
</g>
<g>
</g>
<g>
</g>
<g>
</g>
<g>
</g>
<g>
</g>
<g>
</g>
<g>
</g>
</svg>
