<?xml version='1.0' encoding='iso-8859-1'?>
<svg version="1.1" xmlns="http://www.w3.org/2000/svg" viewBox="0 0 463 463" xmlns:xlink="http://www.w3.org/1999/xlink" enable-background="new 0 0 463 463">
  <g>
    <path d="m439.5,188h-50.436l.636-7.952c0.406-5.074 4.71-9.048 9.8-9.048 4.142,0 7.5-3.357 7.5-7.5s-3.358-7.5-7.5-7.5h-14.029c-5.074-2.825-20.447-11.092-41.025-19.449-33.58-13.637-63.506-20.551-88.946-20.551h-16.5v-9h8.5c12.958,0 23.5-10.542 23.5-23.5s-10.542-23.5-23.5-23.5h-32c-12.958,0-23.5,10.542-23.5,23.5s10.542,23.5 23.5,23.5h8.5v9h-16.5c-55.713,0-118.44,33.552-129.978,40h-14.022c-4.142,0-7.5,3.357-7.5,7.5s3.358,7.5 7.5,7.5c5.089,0 9.394,3.974 9.8,9.047l.636,7.953h-50.436c-12.958,0-23.5,10.542-23.5,23.5s10.542,23.5 23.5,23.5h54.196l10.328,129.098c0.033,0.412 0.1,0.82 0.2,1.222l4.97,19.881c2.62,10.48 11.995,17.8 22.798,17.8h231.016c10.803,0 20.178-7.319 22.798-17.8l4.97-19.881c0.101-0.401 0.167-0.81 0.2-1.222l10.328-129.098h54.196c12.958,0 23.5-10.542 23.5-23.5s-10.542-23.5-23.5-23.5zm-232.5-104.5c0-4.687 3.813-8.5 8.5-8.5h32c4.687,0 8.5,3.813 8.5,8.5s-3.813,8.5-8.5,8.5h-32c-4.687,0-8.5-3.813-8.5-8.5zm.5,47.5h48c33.653,0 71.263,13.816 96.198,25h-240.421c24.918-11.184 62.52-25 96.223-25zm-184,89c-4.687,0-8.5-3.813-8.5-8.5s3.813-8.5 8.5-8.5h51.636l1.36,17h-52.996zm323.508,168h-231.016c-3.907,0-7.298-2.647-8.246-6.438l-2.64-10.562h252.788l-2.64,10.562c-0.948,3.791-4.339,6.438-8.246,6.438zm27.74-209.148l-14.172,177.148h-258.152l-14.172-177.149c-0.222-2.771-0.904-5.412-1.968-7.851h290.432c-1.064,2.438-1.746,5.079-1.968,7.852zm64.752,41.148h-52.996l1.36-17h51.636c4.687,0 8.5,3.813 8.5,8.5s-3.813,8.5-8.5,8.5z"/>
  </g>
</svg>
