<?xml version="1.0" encoding="iso-8859-1"?>
<!-- Generator: Adobe Illustrator 18.0.0, SVG Export Plug-In . SVG Version: 6.00 Build 0)  -->
<!DOCTYPE svg PUBLIC "-//W3C//DTD SVG 1.1//EN" "http://www.w3.org/Graphics/SVG/1.1/DTD/svg11.dtd">
<svg version="1.1" id="Capa_1" xmlns="http://www.w3.org/2000/svg" xmlns:xlink="http://www.w3.org/1999/xlink" x="0px" y="0px"
	 viewBox="0 0 58.999 58.999" style="enable-background:new 0 0 58.999 58.999;" xml:space="preserve">
<g>
	<path d="M55.999,29.242H40.963c0.058-0.381,0.004-0.776-0.192-1.121c-0.308-0.542-0.886-0.879-1.509-0.879H1.735
		c-0.623,0-1.201,0.337-1.509,0.879c-0.309,0.545-0.301,1.217,0.019,1.754l1.631,2.732c0.355,0.596,0.542,1.277,0.542,1.971v0.463
		c0,3.419,2.769,6.201,6.172,6.201h23.814c3.336,0,6.055-2.675,6.162-6h17.431c1.654,0,3-1.346,3-3S57.653,29.242,55.999,29.242z
		 M32.406,39.242H8.591c-1.02,0-1.944-0.385-2.67-1h11.077c0.552,0,1-0.447,1-1s-0.448-1-1-1H4.614c-0.096-0.32-0.158-0.653-0.175-1
		h8.845c0.552,0,1-0.447,1-1s-0.448-1-1-1H4.253c-0.137-0.581-0.351-1.142-0.659-1.659l-1.397-2.341H38.8l-1.397,2.341
		c-0.122,0.205-0.229,0.42-0.325,0.64c-0.057,0.13-0.102,0.265-0.149,0.399c-0.028,0.082-0.06,0.161-0.085,0.244
		c-0.055,0.179-0.097,0.361-0.134,0.544c-0.008,0.039-0.017,0.077-0.024,0.116c-0.037,0.2-0.062,0.401-0.077,0.605
		c-0.001,0.014-0.004,0.027-0.005,0.041l-0.075,1.069h0.03C36.451,37.463,34.638,39.242,32.406,39.242z M55.999,33.242H38.826
		c0.004-0.011,0.008-0.023,0.012-0.034c0.076-0.205,0.167-0.402,0.276-0.586c0.002-0.004,0.004-0.008,0.006-0.012l0.815-1.367
		h16.063c0.552,0,1,0.448,1,1S56.55,33.242,55.999,33.242z"/>
	<path d="M37.999,52.242h-4.904c1.745-1.328,2.726-2.29,2.883-3.472c0.17-1.285-0.632-2.319-1.961-4.032
		c-0.259-0.333-0.542-0.697-0.845-1.099l-0.603-0.798l-0.798,0.603c-1.823,1.377-2.841,2.354-3.001,3.563
		c-0.17,1.285,0.632,2.319,1.961,4.032c0.259,0.333,0.542,0.697,0.845,1.099l0.078,0.104H21.346c1.745-1.328,2.726-2.29,2.883-3.472
		c0.17-1.285-0.632-2.319-1.961-4.032c-0.259-0.333-0.542-0.697-0.845-1.099l-0.603-0.798l-0.798,0.603
		c-1.823,1.377-2.841,2.354-3.001,3.563c-0.17,1.285,0.632,2.319,1.961,4.032c0.259,0.333,0.542,0.697,0.845,1.099l0.078,0.104
		H9.346c1.745-1.328,2.726-2.29,2.883-3.472c0.17-1.285-0.632-2.319-1.961-4.032c-0.259-0.333-0.542-0.697-0.845-1.099l-0.603-0.798
		l-0.798,0.603c-1.823,1.377-2.841,2.354-3.001,3.563c-0.17,1.285,0.632,2.319,1.961,4.032c0.259,0.333,0.542,0.697,0.845,1.099
		l0.078,0.104H3.999c-0.552,0-1,0.447-1,1s0.448,1,1,1h34c0.552,0,1-0.447,1-1S38.551,52.242,37.999,52.242z M30.752,47.27
		c0.053-0.401,0.702-1.02,1.441-1.62c0.083,0.108,0.165,0.213,0.244,0.314c0.94,1.211,1.619,2.086,1.559,2.543
		c-0.053,0.401-0.702,1.02-1.441,1.62c-0.083-0.108-0.165-0.213-0.244-0.314C31.37,48.602,30.691,47.727,30.752,47.27z
		 M19.002,47.27c0.053-0.401,0.702-1.02,1.441-1.62c0.083,0.108,0.165,0.213,0.244,0.314c0.94,1.211,1.619,2.086,1.559,2.543
		c-0.053,0.401-0.702,1.02-1.441,1.62c-0.083-0.108-0.165-0.213-0.244-0.314C19.621,48.602,18.942,47.727,19.002,47.27z
		 M7.002,47.27c0.053-0.401,0.702-1.02,1.441-1.62c0.083,0.108,0.165,0.213,0.244,0.314c0.94,1.211,1.619,2.086,1.559,2.543
		c-0.053,0.401-0.702,1.02-1.441,1.62c-0.083-0.108-0.165-0.213-0.244-0.314C7.621,48.602,6.942,47.727,7.002,47.27z"/>
	<path d="M9.24,18.485c0,1.868,0.729,3.627,2.052,4.949c0.195,0.195,0.451,0.293,0.707,0.293s0.512-0.098,0.707-0.293
		c0.391-0.391,0.391-1.023,0-1.414c-0.945-0.945-1.466-2.201-1.466-3.535c0-1.335,0.521-2.591,1.466-3.536
		c1.323-1.322,2.052-3.081,2.052-4.95c0-1.868-0.729-3.627-2.052-4.949c-0.391-0.391-1.023-0.391-1.414,0s-0.391,1.023,0,1.414
		c0.945,0.945,1.466,2.201,1.466,3.535c0,1.335-0.521,2.591-1.466,3.536C9.968,14.857,9.24,16.616,9.24,18.485z"/>
	<path d="M21.481,18.485c0,1.868,0.729,3.627,2.052,4.949c0.195,0.195,0.451,0.293,0.707,0.293s0.512-0.098,0.707-0.293
		c0.391-0.391,0.391-1.023,0-1.414c-0.945-0.945-1.466-2.201-1.466-3.535c0-1.335,0.521-2.591,1.466-3.536
		c1.323-1.322,2.052-3.081,2.052-4.95c0-1.868-0.729-3.627-2.052-4.949c-0.391-0.391-1.023-0.391-1.414,0s-0.391,1.023,0,1.414
		c0.945,0.945,1.466,2.201,1.466,3.535c0,1.335-0.521,2.591-1.466,3.536C22.21,14.857,21.481,16.616,21.481,18.485z"/>
</g>
<g>
</g>
<g>
</g>
<g>
</g>
<g>
</g>
<g>
</g>
<g>
</g>
<g>
</g>
<g>
</g>
<g>
</g>
<g>
</g>
<g>
</g>
<g>
</g>
<g>
</g>
<g>
</g>
<g>
</g>
</svg>
