<?xml version="1.0" encoding="iso-8859-1"?>
<!-- Generator: Adobe Illustrator 19.0.0, SVG Export Plug-In . SVG Version: 6.00 Build 0)  -->
<svg xmlns="http://www.w3.org/2000/svg" xmlns:xlink="http://www.w3.org/1999/xlink" version="1.1" id="Layer_1" x="0px" y="0px" viewBox="0 0 457.031 457.031" style="enable-background:new 0 0 457.031 457.031;" xml:space="preserve" width="512" height="512">
<g>
	<path style="fill:#99E2FF;" d="M412.289,215.885c0,30.64-16.12,57.5-40.34,72.6c6.88,16.61,10.69,34.82,10.69,53.93   c0,24.61-6.31,47.75-17.4,67.89c-9.42,17.11-27.48,27.67-47.01,27.67h-145.6l-0.18-0.2c6.92-6.18,11.11-14.33,11.11-23.25   c0-1.52-0.12-3.01-0.35-4.48l0.39-0.07h130.1c12.76,0,24.4-7.31,29.91-18.82c7.21-15.07,11.03-31.68,11.03-48.74   c0-28.42-10.53-55.09-28.83-75.47c-8.93-9.95-19.73-18.4-32.05-24.82c-21.19-11.04-34.36-32.67-34.36-56.44v-92.69h24.09h3.91   v47.02c11.79-6.13,25.18-9.62,39.4-9.62C374.019,130.395,412.289,168.675,412.289,215.885z M347.909,249.765   c11.29-7.05,18.8-19.58,18.8-33.87c0-22.05-17.87-39.92-39.92-39.92c-16.28,0-30.28,9.76-36.49,23.74   c3.22,7.43,8.94,13.7,16.39,17.58C322.399,225.475,336.369,236.535,347.909,249.765z"/>
	<path style="fill:#9AD14B;" d="M354.639,342.415c0,17.06-3.82,33.67-11.03,48.74c-5.51,11.51-17.15,18.82-29.91,18.82h-130.1   l-0.39,0.07c-0.31-1.89-0.8-3.73-1.48-5.52c10.56-3.43,30.44-12.49,48.74-35.18c0,0-24.51-7.39-49.28-1.79   c3.15-10.93,5.35-25.61,3.43-43.57c0,0-38.25,20.54-45.06,55.54c-1.55,0-3.08,0.06-4.59,0.2c-4.14-11.87-6.31-24.46-6.31-37.31   c0-27.57,9.91-53.5,27.21-73.63h169.3l0.64-1.84C344.109,287.325,354.639,313.995,354.639,342.415z"/>
	<g>
		<path style="fill:#90BC42;" d="M191.689,391.155c-7.21-15.07-11.03-31.68-11.03-48.74c0-27.573,9.913-53.498,27.215-73.63h-49.745    l-0.64-1.84c-18.3,20.38-28.83,47.05-28.83,75.47c0,17.06,3.82,33.67,11.03,48.74c5.51,11.51,17.15,18.82,29.91,18.82h52    C208.839,409.975,197.199,402.665,191.689,391.155z"/>
	</g>
	<path style="fill:#A3E3E5;" d="M325.809,266.945l-0.64,1.84h-169.3c9.24-10.75,20.59-19.85,33.67-26.66   c21.2-11.04,34.36-32.67,34.36-56.44v-92.69h35.5v92.69c0,23.77,13.17,45.4,34.36,56.44   C306.079,248.545,316.879,256.995,325.809,266.945z"/>
	<path style="fill:#7ECFE8;" d="M283.489,50.995c11.6,0,21,9.4,21,21c0,5.8-2.35,11.05-6.15,14.85c-3.8,3.8-9.05,6.15-14.85,6.15   h-24.09h-35.5h-24.09c-3.43,0-6.8-0.6-9.97-1.74c-3.18-1.15-6.16-2.83-8.79-5.02l-17.65-14.61c-8.41-6.96-3.49-20.63,7.43-20.63   h37.65h66.34H283.489z"/>
	<path style="fill:#69C2D6;" d="M227.049,86.235l-17.65-14.61c-8.41-6.96-3.49-20.63,7.43-20.63h-8.35h-37.65   c-10.92,0-15.84,13.67-7.43,20.63l17.65,14.61c2.63,2.19,5.61,3.87,8.79,5.02c3.17,1.14,6.54,1.74,9.97,1.74h24.09h21.91   c-3.43,0-6.8-0.6-9.97-1.74C232.659,90.105,229.679,88.425,227.049,86.235z"/>
	<polygon style="fill:#F7B239;" points="280.809,7.505 274.819,50.995 208.479,50.995 202.479,7.505  "/>
	<polygon style="fill:#E09B2D;" points="202.479,7.505 208.479,50.995 238.479,50.995 232.479,7.505  "/>
	<path style="fill:#99E2FF;" d="M223.899,92.995v92.69c0,23.77-13.16,45.4-34.36,56.44c-13.08,6.81-24.43,15.91-33.67,26.66   c-17.3,20.13-27.21,46.06-27.21,73.63c0,12.85,2.17,25.44,6.31,37.31c-7.7,0.62-14.82,2.84-20.82,6.22v0.01   c-2.43-1.37-5.05-2.55-7.81-3.51l0.04-0.13c-3.72-12.66-5.72-26.04-5.72-39.9c0-54.41,30.82-101.62,75.95-125.13   c11.81-6.15,19.29-18.28,19.29-31.6v-92.69h3.91H223.899z"/>
	<path style="fill:#9AD14B;" d="M171.049,390.075c4.92,4.01,8.63,8.95,10.68,14.45c0.68,1.79,1.17,3.63,1.48,5.52   c0.23,1.47,0.35,2.96,0.35,4.48c0,8.92-4.19,17.07-11.11,23.25c-8.06,7.21-19.81,11.75-32.89,11.75c-9.47,0-18.22-2.38-25.4-6.42   c11.25-6.33,18.59-16.77,18.59-28.57s-7.35-22.24-18.6-28.58v-0.01c6-3.38,13.12-5.6,20.82-6.22c1.51-0.14,3.04-0.2,4.59-0.2   C151.899,379.525,163.059,383.565,171.049,390.075z"/>
	<path style="fill:#9AD14B;" d="M114.159,443.105c-7.18,4.05-15.94,6.43-25.41,6.43c-24.3,0-44-15.67-44-35s19.7-35,44-35   c6.25,0,12.2,1.04,17.59,2.91c2.76,0.96,5.38,2.14,7.81,3.51c11.25,6.34,18.6,16.78,18.6,28.58S125.409,436.775,114.159,443.105z"/>
	<path style="fill:#90BC42;" d="M74.749,414.535c0-15.135,12.079-28.024,28.985-32.907c-4.681-1.349-9.724-2.093-14.985-2.093   c-24.3,0-44,15.67-44,35c0,19.33,19.7,35,44,35c5.257,0,10.282-0.756,14.953-2.102C86.812,442.543,74.749,429.66,74.749,414.535z"/>
	<path style="fill:#7EA33E;" d="M230.469,369.345c-18.3,22.69-38.18,31.75-48.74,35.18c-2.05-5.5-5.76-10.44-10.68-14.45   c0.28-0.38,6.02-8.24,10.14-22.52C205.959,361.955,230.469,369.345,230.469,369.345z"/>
	<path style="fill:#7EA33E;" d="M184.619,323.985c1.92,17.96-0.28,32.64-3.43,43.57c-4.12,14.28-9.86,22.14-10.14,22.52   c-7.99-6.51-19.15-10.55-31.49-10.55C146.369,344.525,184.619,323.985,184.619,323.985z"/>
	<path style="fill:#FFFFFF;" d="M324.18,385.832c-1.001,0-2.019-0.202-2.995-0.628c-3.797-1.656-5.532-6.077-3.875-9.873   c4.528-10.379,6.824-21.453,6.824-32.913c0-30.887-17.04-58.951-44.47-73.24c-12.963-6.754-24.321-16.522-32.847-28.248   c-2.436-3.35-1.695-8.041,1.655-10.477c3.351-2.437,8.042-1.694,10.477,1.655c7.169,9.86,16.729,18.078,27.645,23.766   c32.408,16.882,52.54,50.043,52.54,86.543c0,13.537-2.717,26.628-8.076,38.911C329.828,384.149,327.072,385.832,324.18,385.832z"/>
	<path style="fill:#FFFFFF;" d="M390.958,230.024c-0.254,0-0.51-0.013-0.769-0.039c-4.121-0.419-7.122-4.1-6.702-8.221   c0.197-1.937,0.297-3.914,0.297-5.876c0-23.902-15.119-45.443-37.622-53.603c-3.894-1.412-5.906-5.713-4.494-9.607   s5.716-5.906,9.607-4.494c28.417,10.304,47.509,37.512,47.509,67.704c0,2.468-0.126,4.956-0.374,7.395   C398.017,227.146,394.758,230.024,390.958,230.024z"/>
	<path style="fill:#FFFFFF;" d="M109.747,422.031c-3.953,0-7.192-3.059-7.479-6.938c-0.795-1.331-5.233-5.062-13.521-5.062   c-4.142,0-7.5-3.358-7.5-7.5s3.358-7.5,7.5-7.5c17.048,0,28.5,10.083,28.5,19.5C117.247,418.673,113.889,422.031,109.747,422.031z    M102.353,415.257L102.353,415.257L102.353,415.257z M102.247,414.531c0,0.001,0,0.003,0,0.005   C102.247,414.535,102.247,414.533,102.247,414.531z"/>
	<path style="fill:#FFFFFF;" d="M160.557,422.028c-3.951,0-7.188-3.055-7.479-6.931c-0.46-0.739-2.46-2.89-6.915-4.177   c-3.979-1.15-6.272-5.309-5.122-9.288c1.15-3.979,5.31-6.273,9.288-5.122c10.438,3.018,17.728,10.427,17.728,18.018   C168.057,418.67,164.699,422.028,160.557,422.028z M153.057,414.528c0,0.001,0,0.003,0,0.004   C153.057,414.531,153.057,414.529,153.057,414.528z"/>
	<circle style="fill:#FFFFFF;" cx="326.685" cy="152.951" r="7.5"/>
	<circle style="fill:#FFFFFF;" cx="241.412" cy="215.85" r="7.5"/>
	<circle style="fill:#FFFFFF;" cx="283.222" cy="71.48" r="7.5"/>
	<g>
		<path style="fill:#333333;" d="M419.784,215.888c0-51.275-41.715-92.99-92.99-92.99c-10.869,0-21.71,1.933-31.9,5.647V98.105    c10.051-4.409,17.091-14.449,17.091-26.109c0-15.714-12.784-28.499-28.499-28.499h-0.065l4.817-34.975    c0.296-2.147-0.352-4.317-1.776-5.951S282.976,0,280.809,0h-78.326c-2.167,0-4.229,0.938-5.653,2.572s-2.072,3.804-1.776,5.951    l4.817,34.975h-29.042c-8.174,0-15.247,4.969-18.018,12.66c-2.771,7.69-0.493,16.028,5.804,21.242l17.65,14.615    c3.603,2.984,7.731,5.23,12.129,6.661v87.013c0,10.489-5.845,20.048-15.254,24.949c-49.337,25.701-79.985,76.196-79.985,131.781    c0,10.141,1.043,20.207,3.068,30.066c-2.442-0.294-4.936-0.453-7.475-0.453c-28.397,0-51.5,19.065-51.5,42.5    s23.103,42.5,51.5,42.5c9.212,0,17.86-2.016,25.35-5.528c7.736,3.621,16.453,5.524,25.461,5.524    c13.624,0,26.019-4.396,35.24-11.55h143.428c22.338,0,42.872-12.093,53.587-31.56c11.986-21.775,18.322-46.5,18.322-71.5    c0-17.575-3.031-34.72-9.018-51.052C405.441,273.884,419.784,246.109,419.784,215.888z M290.289,248.78    c6.794,3.539,13.083,7.747,18.818,12.507H174.18c5.735-4.76,12.024-8.968,18.818-12.507    c23.684-12.333,38.396-36.508,38.396-63.092v-85.19h20.5v85.19C251.894,212.265,266.606,236.44,290.289,248.78z M187.005,374.068    c10.828-1.785,21.407-1.096,29.148,0.003c-11.392,11.351-22.621,17.647-30.78,21.086c-1.379-2.212-2.98-4.315-4.79-6.282    C182.479,385.424,184.85,380.452,187.005,374.068z M172.661,369.656c-1.364,3.982-2.81,7.257-4.077,9.789    c-5.725-3.236-12.279-5.538-19.34-6.652c6.013-16.087,19.223-28.284,28.586-35.329    C177.79,351.354,175.174,362.317,172.661,369.656z M236.305,374.057c1.567-1.943,2.064-4.538,1.328-6.922    c-0.737-2.384-2.611-4.247-5.001-4.967c-0.92-0.278-19.734-5.825-41.637-3.733c1.773-9.916,2.533-21.717,1.083-35.249    c-0.266-2.482-1.749-4.669-3.957-5.834c-2.208-1.165-4.851-1.156-7.049,0.025c-1.423,0.764-29.842,16.306-43.212,43.911    c-1.123-6.203-1.706-12.507-1.706-18.87c0-24.566,8.432-47.731,23.241-66.131h164.497c14.81,18.4,23.242,41.565,23.242,66.131    c0,15.918-3.463,31.226-10.294,45.5c-4.233,8.845-13.316,14.56-23.142,14.56H203.983    C213.942,396.536,225.42,387.553,236.305,374.057z M211.087,15h61.119l-3.925,28.498h-53.268L211.087,15z M168.181,65.846    c-2.027-1.679-1.555-3.779-1.258-4.604s1.273-2.744,3.905-2.744h112.658c7.443,0,13.499,6.056,13.499,13.499    s-6.055,13.499-13.499,13.499h-83.681c-5.091,0-10.053-1.788-13.974-5.034L168.181,65.846z M108.154,342.418    c0-49.972,27.556-95.371,71.915-118.478c14.387-7.492,23.325-22.149,23.325-38.252v-85.19h13v85.19    c0,20.97-11.62,40.047-30.325,49.788c-40.041,20.858-64.915,61.835-64.915,106.942c0,10.614,1.398,21.09,4.126,31.262    c-3.892,0.92-7.645,2.215-11.19,3.875c-0.47-0.22-0.944-0.436-1.423-0.645C109.682,365.698,108.154,354.114,108.154,342.418z     M52.247,414.531c0-15.164,16.374-27.5,36.5-27.5s36.5,12.336,36.5,27.5s-16.374,27.5-36.5,27.5S52.247,429.695,52.247,414.531z     M139.557,442.028c-3.578,0-7.073-0.409-10.427-1.169c6.951-7.246,11.117-16.39,11.117-26.328c0-9.94-4.168-19.087-11.122-26.333    c3.355-0.761,6.853-1.17,10.432-1.17c20.126,0,36.5,12.336,36.5,27.5S159.683,442.028,139.557,442.028z M367.976,282.124    c-3.112,1.94-4.365,5.846-2.961,9.234c6.715,16.21,10.119,33.39,10.119,51.06c0,22.478-5.692,44.701-16.462,64.267    c-8.079,14.676-23.577,23.793-40.447,23.793H187.28c2-4.061,3.258-8.432,3.639-13h122.779c15.566,0,29.961-9.062,36.672-23.085    c7.806-16.311,11.764-33.798,11.764-51.975c0-45.106-24.874-86.084-64.915-106.941c-18.706-9.746-30.326-28.824-30.326-49.789    v-85.19h13v39.52c0,2.621,1.368,5.051,3.607,6.411c2.241,1.36,5.028,1.454,7.353,0.244c11.198-5.822,23.291-8.774,35.94-8.774    c43.004,0,77.99,34.986,77.99,77.99C404.784,242.994,391.024,267.754,367.976,282.124z"/>
		<path style="fill:#333333;" d="M326.793,168.474c-18.727,0-35.741,11.068-43.346,28.196c-0.85,1.915-0.861,4.097-0.03,6.02    c3.936,9.104,10.969,16.652,19.806,21.255c14.841,7.73,27.975,18.076,39.034,30.749c1.47,1.684,3.549,2.569,5.654,2.569    c1.365,0,2.742-0.372,3.971-1.14c13.98-8.735,22.327-23.775,22.327-40.232C374.21,189.745,352.939,168.474,326.793,168.474z     M348.836,239.664c-11.257-11.755-24.241-21.5-38.683-29.022c-4.79-2.495-8.769-6.305-11.457-10.915    c5.744-9.973,16.435-16.252,28.096-16.252c17.875,0,32.417,14.542,32.417,32.417C359.21,225.06,355.417,233.587,348.836,239.664z"/>
	</g>
</g>















</svg>
