<?xml version="1.0" encoding="iso-8859-1"?>
<!-- Generator: Adobe Illustrator 19.0.0, SVG Export Plug-In . SVG Version: 6.00 Build 0)  -->
<svg version="1.1" id="Layer_1" xmlns="http://www.w3.org/2000/svg" xmlns:xlink="http://www.w3.org/1999/xlink" x="0px" y="0px"
	 viewBox="0 0 509.287 509.287" style="enable-background:new 0 0 509.287 509.287;" xml:space="preserve">
<circle style="fill:#4F5565;" cx="254.644" cy="254.644" r="254.644"/>
<path style="fill:#F0BA7A;" d="M19.666,271.936v-39.332l8.138-5.425c3.052-9.155,6.781-17.971,11.528-27.126
	c56.964-110.199,154.956-97.992,154.956-97.992c89.176,23.396,107.825,85.446,151.226,120.032
	c25.091,20.005,90.532,28.821,117.997,66.458l12.207,2.374v28.821c0.678,5.764,0.678,11.529,0,17.971
	c-9.833,90.872-209.547,118.676-329.918,95.279C81.717,420.45,23.057,359.417,19.666,283.804l0,0v-1.017
	C19.666,279.396,19.666,275.666,19.666,271.936z"/>
<path style="fill:#EAA860;" d="M96.297,339.751c-27.126-75.952,100.366-125.796,214.294-154.278
	c-26.109-31.534-53.913-67.136-116.302-83.412c0,0-97.992-12.546-154.956,97.992c-4.747,9.155-8.477,18.31-11.528,27.126
	l-8.138,5.425v39.332c0,3.73,0,7.121,0,10.85v1.017l0,0c3.391,75.613,62.05,136.646,126.135,149.192
	c91.55,17.971,229.213,6.103,293.976-40.689C352.297,410.617,134.273,445.203,96.297,339.751z"/>
<path style="fill:#FCFCFD;" d="M194.289,55.269c0,0-97.992-12.546-154.956,97.992S58.999,369.25,145.801,386.204
	c120.371,23.396,319.746-4.069,329.918-95.279c8.816-82.395-96.636-89.176-130.204-115.963
	C302.114,140.715,283.465,78.665,194.289,55.269z"/>
<path style="fill:#C2382E;" d="M235.317,383.83c109.86,0,224.466-32.212,231.248-94.262c5.086-47.131-32.551-65.441-82.395-84.768
	c-17.971-7.121-33.568-12.885-44.079-21.362c-14.58-11.528-26.109-25.43-38.315-40.35c-25.091-30.856-51.2-62.389-109.181-77.648
	c-1.017,0-3.73-0.339-7.46-0.339c-27.126,0-94.601,9.155-138.003,93.245c-27.804,53.574-19.327,99.348-7.121,127.83
	c19.327,45.775,61.372,81.038,107.486,89.854C173.605,381.118,204.122,383.83,235.317,383.83z"/>
<path style="fill:#F7CFA2;" d="M176.657,181.404c11.868,13.563,49.505,41.367,3.391,83.751c-2.034,2.034-20.344,23.057,9.494,5.425
	c32.212-18.988,38.654-36.62,87.481-20.344c34.925,11.528,27.804,0.678,5.425-5.425c-21.022-5.764-42.723-13.224-53.574-22.04
	c-11.528-9.155-31.195-32.89-47.809-44.079C168.858,170.554,173.944,178.352,176.657,181.404z"/>
<g>
</g>
<g>
</g>
<g>
</g>
<g>
</g>
<g>
</g>
<g>
</g>
<g>
</g>
<g>
</g>
<g>
</g>
<g>
</g>
<g>
</g>
<g>
</g>
<g>
</g>
<g>
</g>
<g>
</g>
</svg>
