<?xml version="1.0" encoding="iso-8859-1"?>
<!-- Generator: Adobe Illustrator 19.0.0, SVG Export Plug-In . SVG Version: 6.00 Build 0)  -->
<svg version="1.1" id="Layer_1" xmlns="http://www.w3.org/2000/svg" xmlns:xlink="http://www.w3.org/1999/xlink" x="0px" y="0px"
	 viewBox="0 0 496.653 496.653" style="enable-background:new 0 0 496.653 496.653;" xml:space="preserve">
<path style="fill:#F4C1E2;" d="M248.326,0.726c-32,88-222.4,160-245.6,278.4c-23.2,117.6,105.6,216.8,236.8,216.8c3.2,0,9.6,0,9.6,0
	V0.726H248.326z"/>
<path style="fill:#E2ACD1;" d="M248.326,42.326c-32,75.2-189.6,136-209.6,237.6c-20,100,90.4,184.8,201.6,184.8c2.4,0,8,0,8,0
	V42.326z"/>
<path style="fill:#D193C1;" d="M248.326,81.526c-24,63.2-148.8,114.4-164.8,199.2c-16,84,71.2,155.2,159.2,155.2c2.4,0,6.4,0,6.4,0
	v-354.4H248.326z"/>
<path style="fill:#C17CB3;" d="M248.326,143.126c-16,44.8-105.6,80.8-116.8,141.6c-11.2,60,50.4,109.6,112.8,109.6c1.6,0,4,0,4,0
	V143.126z"/>
<path style="fill:#AF64A1;" d="M248.326,207.926c-8,27.2-64,48.8-70.4,85.6c-6.4,36,30.4,66.4,68,66.4c0.8,0,2.4,0,2.4,0V207.926z"
	/>
<path style="fill:#E259B1;" d="M248.326,0.726c32,88,222.4,160,245.6,278.4c23.2,117.6-105.6,216.8-236.8,216.8c-3.2,0-9.6,0-9.6,0
	V0.726H248.326z"/>
<path style="fill:#F46CC3;" d="M248.326,0.726c16,88,122.4,160,135.2,278.4c12.8,117.6-58.4,216.8-130.4,216.8c-1.6,0-4.8,0-4.8,0
	L248.326,0.726L248.326,0.726z"/>
<path style="fill:#FF7DD4;" d="M248.326,0.726c8,88,44,160,48.8,278.4c4.8,117.6-20.8,216.8-47.2,216.8c-0.8,0-1.6,0-1.6,0
	L248.326,0.726L248.326,0.726z"/>
<g>
</g>
<g>
</g>
<g>
</g>
<g>
</g>
<g>
</g>
<g>
</g>
<g>
</g>
<g>
</g>
<g>
</g>
<g>
</g>
<g>
</g>
<g>
</g>
<g>
</g>
<g>
</g>
<g>
</g>
</svg>
