<?xml version="1.0" encoding="iso-8859-1"?>
<!-- Generator: Adobe Illustrator 16.0.0, SVG Export Plug-In . SVG Version: 6.00 Build 0)  -->
<!DOCTYPE svg PUBLIC "-//W3C//DTD SVG 1.1//EN" "http://www.w3.org/Graphics/SVG/1.1/DTD/svg11.dtd">
<svg xmlns="http://www.w3.org/2000/svg" xmlns:xlink="http://www.w3.org/1999/xlink" version="1.1" id="Layer_1" x="0px" y="0px" width="512" height="512" viewBox="0 0 330 330" style="enable-background:new 0 0 330 330;" xml:space="preserve">
<g>
	<path style="fill:#FF4B0C;" d="M307.17,97.687C290.676,79.183,266.682,67.5,239.999,67.5c-49.626,0-90,40.374-90,90   c0.001,33.084-26.915,60-59.999,60c-33.085,0-60-26.917-60-60c-0.001-8.284-6.717-15-15-15c-8.285-0.001-15,6.716-15,14.999   c0,66.762,39.855,124.388,97.021,150.338c20.74,9.416,43.759,14.663,67.979,14.663c90.981,0,165-74.018,165-165   C329.999,134.556,321.355,113.6,307.17,97.687z"/>
	<path style="fill:#FF2300;" d="M330,157.5c-0.001-22.944-8.645-43.9-22.83-59.813L97.021,307.837   c20.74,9.416,43.759,14.663,67.979,14.663C255.981,322.5,330,248.482,330,157.5z"/>
	<path style="fill:#00B10E;" d="M276.35,121.167L255,78.925V22.5c0-8.284-6.717-15-15-15c-8.284-0.001-15,6.716-15,15v56.425   l-21.35,42.243c-3.736,7.394-0.771,16.417,6.621,20.153c2.17,1.097,4.479,1.615,6.755,1.614c5.479,0,10.757-3.012,13.398-8.236   l9.574-18.942l9.575,18.942c2.639,5.225,7.918,8.237,13.398,8.237c2.274,0,4.585-0.519,6.754-1.615   C277.119,137.584,280.084,128.562,276.35,121.167z"/>
</g>















</svg>
