<?xml version="1.0" encoding="iso-8859-1"?>
<!-- Generator: Adobe Illustrator 19.0.0, SVG Export Plug-In . SVG Version: 6.00 Build 0)  -->
<svg version="1.1" id="Layer_1" xmlns="http://www.w3.org/2000/svg" xmlns:xlink="http://www.w3.org/1999/xlink" x="0px" y="0px"
	 viewBox="0 0 325 325" style="enable-background:new 0 0 325 325;" xml:space="preserve">
<g id="XMLID_1062_">
	<g id="XMLID_1063_">
		<path id="XMLID_1064_" style="fill:#64C37D;" d="M162.5,239c-8.284,0-15-6.716-15-15V46c0-25.364,20.636-46,46-46h9
			c8.284,0,15,6.716,15,15s-6.716,15-15,15h-9c-8.822,0-16,7.178-16,16v178C177.5,232.284,170.784,239,162.5,239z"/>
	</g>
	<g id="XMLID_1065_">
		<path id="XMLID_1066_" style="fill:#FF5023;" d="M204.038,65c-15.259,0-29.489,4.37-41.538,11.906
			C150.451,69.37,136.221,65,120.962,65C77.627,65,42.5,100.129,42.5,143.461c0,7.259,0.986,14.285,2.831,20.955
			c5.538,20.009,29.938,119.507,46.503,141.981c8.714,11.82,22.525,18.603,38.358,18.603c12.274,0,23.529-4.356,32.308-11.605
			c8.778,7.249,20.033,11.605,32.308,11.605c15.833,0,29.645-6.783,38.358-18.603c16.564-22.474,40.965-121.972,46.503-141.981
			c1.845-6.669,2.831-13.696,2.831-20.955C282.5,100.129,247.373,65,204.038,65z"/>
	</g>
	<g id="XMLID_1067_">
		<path id="XMLID_1068_" style="fill:#BD3C1A;" d="M162.5,76.906C150.451,69.37,136.221,65,120.962,65
			C77.627,65,42.5,100.129,42.5,143.461c0,7.259,0.986,14.285,2.831,20.955c5.538,20.009,29.938,119.507,46.503,141.981
			c8.714,11.82,22.525,18.603,38.358,18.603c12.274,0,23.529-4.356,32.308-11.605C162.5,266.846,162.5,117.308,162.5,76.906z"/>
	</g>
	<g id="XMLID_1069_">
		<path id="XMLID_1070_" style="fill:#FF734F;" d="M212.5,115c0-27.614-22.386-50-50-50s-50,22.386-50,50l10,170
			c0,22.091,17.908,40,40,40s40-17.909,40-40L212.5,115z"/>
	</g>
	<g id="XMLID_1071_">
		<path id="XMLID_1072_" style="fill:#FF5023;" d="M162.5,65c-27.614,0-50,22.386-50,50l10,170c0,22.091,17.908,40,40,40
			C162.5,239,162.5,120,162.5,65z"/>
	</g>
</g>
<g>
</g>
<g>
</g>
<g>
</g>
<g>
</g>
<g>
</g>
<g>
</g>
<g>
</g>
<g>
</g>
<g>
</g>
<g>
</g>
<g>
</g>
<g>
</g>
<g>
</g>
<g>
</g>
<g>
</g>
</svg>
